<svg viewBox="0 0 193 193" xmlns="http://www.w3.org/2000/svg" fill="#000000">
<path d="M40.6211 157.524L11.2134 135.467C10.2965 134.786 9.55244 133.899 9.04142 132.877C8.5304 131.855 8.26668 130.728 8.27155 129.586V63.4144C8.26668 62.2721 8.5304 61.1447 9.04142 60.1232C9.55244 59.1016 10.2965 58.2145 11.2134 57.5334L40.6211 35.4762C39.8311 36.218 39.2341 37.1414 38.8819 38.1663C38.5297 39.1912 38.433 40.2865 38.6001 41.3572V151.643C38.433 152.714 38.5297 153.809 38.8819 154.834C39.2341 155.859 39.8311 156.782 40.6211 157.524Z"/>
<path d="M181.456 38.8951C180.244 38.0992 178.825 37.6773 177.375 37.682C176.436 37.6744 175.504 37.8522 174.634 38.2052C173.763 38.5581 172.971 39.0793 172.302 39.7388L171.789 40.2544L113.117 96.5001L80.6548 127.637L50.6212 156.421L50.1057 156.937C49.4375 157.597 48.6453 158.119 47.7747 158.473C46.904 158.826 45.9721 159.004 45.0325 158.996C43.4419 158.993 41.8948 158.477 40.6211 157.524L11.2134 135.467C12.7075 136.589 14.5731 137.1 16.4305 136.895C18.2879 136.69 19.9973 135.785 21.2108 134.364L53.8554 96.4642L80.6548 65.3637L127.601 10.8439C128.282 10.0365 129.132 9.38792 130.091 8.94356C131.05 8.4992 132.094 8.26983 133.151 8.27152C134.601 8.26684 136.02 8.68874 137.231 9.48467L181.456 38.8951Z"/>
<path d="M181.456 154.105L137.342 183.515C135.841 184.495 134.037 184.901 132.261 184.658C130.486 184.415 128.857 183.539 127.675 182.192L80.6548 127.637L53.8554 96.4642L21.2108 58.5975C19.9865 57.1909 18.2755 56.2994 16.4211 56.102C14.5668 55.9046 12.7064 56.416 11.2134 57.5334L40.6211 35.4762C41.8948 34.5234 43.4419 34.007 45.0325 34.0038C45.9721 33.9959 46.904 34.1738 47.7747 34.5272C48.6453 34.8807 49.4375 35.4028 50.1057 36.0634L50.6212 36.579L80.6548 65.3637L113.117 96.5001L171.789 152.746L172.302 153.261C172.971 153.921 173.763 154.442 174.634 154.795C175.504 155.148 176.436 155.326 177.375 155.318C178.825 155.323 180.244 154.901 181.456 154.105Z"/>
<path d="M184.729 45.0325V147.968C184.73 149.181 184.432 150.376 183.861 151.446C183.29 152.517 182.464 153.43 181.456 154.105L137.342 183.515C138.35 182.84 139.176 181.926 139.747 180.855C140.317 179.784 140.615 178.589 140.614 177.375V15.6248C140.598 14.4022 140.281 13.2025 139.691 12.1316C139.101 11.0607 138.256 10.1516 137.231 9.48467L181.456 38.8951C182.461 39.5728 183.286 40.4866 183.856 41.5565C184.427 42.6265 184.726 43.8199 184.729 45.0325Z"/>
</svg>